<!--?xml version="1.0" standalone="no"?-->
              <svg id="sw-js-blob-svg" viewBox="0 0 100 100" xmlns="http://www.w3.org/2000/svg" version="1.1">
                    <defs> 
                        <linearGradient id="sw-gradient" x1="0" x2="1" y1="1" y2="0">
                            <stop id="stop1" stop-color="rgba(43, 45, 66, 1)" offset="0%"></stop>
                            <stop id="stop2" stop-color="rgba(47.837, 16.801, 95.803, 0.705)" offset="100%"></stop>
                        </linearGradient>
                    </defs>
                <path fill="none" d="M24.7,-31.7C29.1,-25.7,27.9,-15.2,28,-6.2C28.1,2.8,29.5,10.3,27.7,18.3C25.9,26.3,20.8,34.7,13.8,36.7C6.8,38.8,-2.1,34.4,-11.7,31.3C-21.3,28.2,-31.7,26.2,-34.9,20.3C-38,14.4,-34,4.6,-32.3,-5.8C-30.5,-16.1,-31.1,-27,-26.1,-32.9C-21.2,-38.8,-10.6,-39.7,-0.2,-39.4C10.1,-39.2,20.2,-37.7,24.7,-31.7Z" width="100%" height="100%" transform="translate(50 50)" stroke-width="1" style="transition: all 0.3s ease 0s;" stroke="url(#sw-gradient)"></path>
              </svg>