<!--?xml version="1.0" standalone="no"?-->
              <svg id="sw-js-blob-svg" viewBox="0 0 100 100" xmlns="http://www.w3.org/2000/svg" version="1.1">
                    <defs> 
                        <linearGradient id="sw-gradient" x1="0" x2="1" y1="1" y2="0">
                            <stop id="stop1" stop-color="rgba(237, 242, 244, 1)" offset="0%" data-darkreader-inline-stopcolor="" style="--darkreader-inline-stopcolor:#3d4b4f;"></stop>
                            <stop id="stop2" stop-color="rgba(237, 242, 244, 1)" offset="100%" data-darkreader-inline-stopcolor="" style="--darkreader-inline-stopcolor:#3d4b4f;"></stop>
                        </linearGradient>
                    </defs>
                <path fill="url(#sw-gradient)" d="M22.8,-31.5C28.6,-27.3,31.4,-19.2,33,-11.4C34.5,-3.6,34.7,3.8,33.3,11.7C31.9,19.5,28.9,27.6,23.1,32.7C17.3,37.8,8.6,40,-0.1,40.1C-8.9,40.3,-17.7,38.4,-23.2,33.2C-28.6,27.9,-30.6,19.3,-32.6,11.1C-34.6,2.8,-36.7,-4.9,-34.2,-10.6C-31.6,-16.4,-24.5,-20.1,-18,-24.1C-11.6,-28.1,-5.8,-32.2,1.4,-34.1C8.6,-36,17.1,-35.7,22.8,-31.5Z" width="100%" height="100%" transform="translate(50 50)" stroke-width="0" style="transition: all 0.3s ease 0s;"></path>
              </svg>